<svg xmlns="http://www.w3.org/2000/svg" width="19" height="18.991" viewBox="0 0 19 18.991">
  <defs>
    <style>
      .cls-1 {
        fill: #b6b6b6;
      }
    </style>
  </defs>
  <g id="bank-building" transform="translate(0.001 -0.011)">
    <g id="Layer_1_78_">
      <g id="Group_2228" data-name="Group 2228" transform="translate(-0.001 0.011)">
        <path id="Union_3" data-name="Union 3" class="cls-1" d="M.863,18.991a.864.864,0,0,1,0-1.728H18.129a.864.864,0,0,1,0,1.728Zm1.08-2.244a.864.864,0,0,1,0-1.728h.216V7.25H1.943a.431.431,0,1,1,0-.863H17.049a.431.431,0,1,1,0,.863h-.215v7.769h.215a.864.864,0,1,1,0,1.728Zm10.575-1.728h2.589V7.25H12.518Zm-4.317,0h2.59V7.25H8.2Zm-4.315,0H6.474V7.25H3.885ZM18.128,5.61H.863A.863.863,0,0,1,.509,3.96L9.143.076a.861.861,0,0,1,.708,0l8.565,3.854a.863.863,0,0,1-.279,1.68Z"/>
      </g>
    </g>
  </g>
</svg>
