<svg xmlns="http://www.w3.org/2000/svg" width="60.811" height="60.81" viewBox="0 0 60.811 60.81">
  <defs>
    <style>
      .cls-1 {
        fill: #fff;
      }

      .cls-2 {
        fill: #f34a38;
      }
    </style>
  </defs>
  <g id="Group_2205" data-name="Group 2205" transform="translate(-394 -1181)">
    <rect id="Rectangle_37" data-name="Rectangle 37" class="cls-1" width="60.81" height="60.81" rx="10" transform="translate(394 1181)"/>
    <g id="google-plus" transform="translate(403.076 1198.245)">
      <path id="Path_123" data-name="Path 123" class="cls-2" d="M14.589,98.567h6.5a8.259,8.259,0,1,1-2.242-8.856.9.9,0,0,0,1.217,0l2.386-2.246a.892.892,0,0,0,0-1.3,13.254,13.254,0,0,0-8.881-3.642A13.3,13.3,0,1,0,26.584,96.571c.01-.088.017-3.053.017-3.053H14.589a.891.891,0,0,0-.891.891v3.267A.891.891,0,0,0,14.589,98.567Z" transform="translate(0 -82.519)"/>
      <path id="Path_124" data-name="Path 124" class="cls-2" d="M332.081,167.181v-3.192a.781.781,0,0,0-.781-.781h-2.686a.781.781,0,0,0-.781.781v3.192h-3.192a.781.781,0,0,0-.781.781v2.686a.781.781,0,0,0,.781.781h3.192v3.192a.781.781,0,0,0,.781.781H331.3a.781.781,0,0,0,.781-.781v-3.192h3.192a.781.781,0,0,0,.781-.781v-2.686a.781.781,0,0,0-.781-.781Z" transform="translate(-294.473 -155.886)"/>
    </g>
  </g>
</svg>
