<svg xmlns="http://www.w3.org/2000/svg" xmlns:xlink="http://www.w3.org/1999/xlink" width="60.81" height="60.81" viewBox="0 0 60.81 60.81">
  <defs>
    <style>
      .cls-1 {
        fill: #fff;
      }

      .cls-2 {
        fill: url(#linear-gradient);
      }

      .cls-3 {
        fill: url(#linear-gradient-2);
      }

      .cls-4 {
        fill: url(#linear-gradient-3);
      }
    </style>
    <linearGradient id="linear-gradient" x1="0.5" y1="0.008" x2="0.5" y2="0.998" gradientUnits="objectBoundingBox">
      <stop offset="0" stop-color="#e09b3d"/>
      <stop offset="0.3" stop-color="#c74c4d"/>
      <stop offset="0.6" stop-color="#c21975"/>
      <stop offset="1" stop-color="#7024c4"/>
    </linearGradient>
    <linearGradient id="linear-gradient-2" y1="-0.451" y2="1.462" xlink:href="#linear-gradient"/>
    <linearGradient id="linear-gradient-3" y1="-1.396" y2="6.586" xlink:href="#linear-gradient"/>
  </defs>
  <g id="Group_2203" data-name="Group 2203" transform="translate(-559.186 -1181)">
    <rect id="Rectangle_39" data-name="Rectangle 39" class="cls-1" width="60.81" height="60.81" rx="10" transform="translate(559.186 1181)"/>
    <g id="instagram" transform="translate(569.17 1190.984)">
      <path id="Path_125" data-name="Path 125" class="cls-2" d="M28.357,0H12.032A12.046,12.046,0,0,0,0,12.032V28.357A12.046,12.046,0,0,0,12.032,40.389H28.357A12.046,12.046,0,0,0,40.389,28.357V12.032A12.046,12.046,0,0,0,28.357,0Zm7.969,28.357a7.969,7.969,0,0,1-7.969,7.969H12.032a7.969,7.969,0,0,1-7.969-7.969V12.032a7.969,7.969,0,0,1,7.969-7.969H28.357a7.969,7.969,0,0,1,7.969,7.969V28.357Z"/>
      <path id="Path_126" data-name="Path 126" class="cls-3" d="M143.446,133a10.446,10.446,0,1,0,10.446,10.446A10.458,10.458,0,0,0,143.446,133Zm0,16.829a6.383,6.383,0,1,1,6.383-6.383A6.383,6.383,0,0,1,143.446,149.829Z" transform="translate(-123.252 -123.252)"/>
      <circle id="Ellipse_1" data-name="Ellipse 1" class="cls-4" cx="2.503" cy="2.503" r="2.503" transform="translate(28.158 7.324)"/>
    </g>
  </g>
</svg>
