<svg xmlns="http://www.w3.org/2000/svg" width="39.706" height="31.765" viewBox="0 0 39.706 31.765">
  <defs>
    <style>
      .cls-1 {
        fill: #fff;
      }
    </style>
  </defs>
  <g id="photo-camera" transform="translate(0 -10)">
    <g id="Group_2183" data-name="Group 2183" transform="translate(0 10)">
      <path id="Path_2291" data-name="Path 2291" class="cls-1" d="M19.853,21.912a5.956,5.956,0,1,0,5.956,5.956A5.956,5.956,0,0,0,19.853,21.912Zm15.882-5.956H30.971a1.768,1.768,0,0,1-1.568-1.13l-1.232-3.7A1.769,1.769,0,0,0,26.6,10H13.1a1.768,1.768,0,0,0-1.568,1.13l-1.232,3.7a1.769,1.769,0,0,1-1.568,1.13H3.971A3.982,3.982,0,0,0,0,19.926V37.794a3.982,3.982,0,0,0,3.971,3.971H35.735a3.982,3.982,0,0,0,3.971-3.971V19.926A3.982,3.982,0,0,0,35.735,15.956ZM19.853,37.794a9.926,9.926,0,1,1,9.926-9.926A9.927,9.927,0,0,1,19.853,37.794ZM34.346,22.7a1.39,1.39,0,1,1,1.39-1.39A1.39,1.39,0,0,1,34.346,22.7Z" transform="translate(0 -10)"/>
    </g>
  </g>
</svg>
