<svg xmlns="http://www.w3.org/2000/svg" width="60.81" height="60.81" viewBox="0 0 60.81 60.81">
  <defs>
    <style>
      .cls-1 {
        fill: #fff;
      }

      .cls-2 {
        fill: #4c96f3;
      }
    </style>
  </defs>
  <g id="Group_2202" data-name="Group 2202" transform="translate(-641.779 -1181)">
    <rect id="Rectangle_40" data-name="Rectangle 40" class="cls-1" width="60.81" height="60.81" rx="10" transform="translate(641.779 1181)"/>
    <path id="twitter" class="cls-2" d="M37.062,38.135a14.913,14.913,0,0,1-2.6.876,8.1,8.1,0,0,0,2.137-3.4h0a.425.425,0,0,0-.621-.494h0a14.984,14.984,0,0,1-3.97,1.64,1.012,1.012,0,0,1-.248.031,1.052,1.052,0,0,1-.7-.265A8.119,8.119,0,0,0,25.7,34.491a8.681,8.681,0,0,0-2.572.4,7.866,7.866,0,0,0-5.3,5.667,8.661,8.661,0,0,0-.193,2.99.291.291,0,0,1-.073.228.3.3,0,0,1-.224.1H17.3A21.29,21.29,0,0,1,2.671,36.056h0a.425.425,0,0,0-.7.054h0A8.129,8.129,0,0,0,3.3,45.98a7.276,7.276,0,0,1-1.852-.717h0a.424.424,0,0,0-.631.366h0a8.129,8.129,0,0,0,4.742,7.49l-.173,0a7.306,7.306,0,0,1-1.368-.13h0a.425.425,0,0,0-.484.547h0a8.137,8.137,0,0,0,6.428,5.535,14.982,14.982,0,0,1-8.391,2.548H.628a.622.622,0,0,0-.608.469.643.643,0,0,0,.308.711,22.285,22.285,0,0,0,11.2,3.019,22.59,22.59,0,0,0,9.569-2.03,21.132,21.132,0,0,0,7-5.247,23,23,0,0,0,4.287-7.18A22.683,22.683,0,0,0,33.841,43.5v-.124a1.382,1.382,0,0,1,.517-1.075,16.048,16.048,0,0,0,3.228-3.543h0a.425.425,0,0,0-.525-.624Z" transform="translate(655.393 1161.938)"/>
  </g>
</svg>
